<?xml version="1.0" encoding="iso-8859-1"?>
<!-- Generator: Adobe Illustrator 21.0.2, SVG Export Plug-In . SVG Version: 6.00 Build 0)  -->
<svg version="1.1" xmlns="http://www.w3.org/2000/svg" xmlns:xlink="http://www.w3.org/1999/xlink" x="0px" y="0px"
	 viewBox="0 0 51.351 43.722" style="enable-background:new 0 0 51.351 43.722;" xml:space="preserve">
<g id="Obermaier_x5F_Gruppe">
	<title>Plancheck</title>
	<title>Domenico-Melchiorre-01</title>
	<title>Domenico-Melchiorre-02</title>
	<g>
		<path d="M20.382,9.783c5.449,0,9.914,4.068,10.615,9.37h9.825C40.085,8.427,31.303,0,20.382,0C9.572,0,0.741,8.427,0,19.152h9.881
			C10.566,13.851,14.933,9.783,20.382,9.783z"/>
		<path d="M31.004,21.712v7.802h9.749c-0.873,3.727-4.484,5.357-9.2,5.357c-6.114,0-10.83-5.415-10.83-11.704
			c0-0.498,0.032-0.988,0.087-1.47h-9.871c-0.034,0.486-0.057,0.975-0.057,1.47c0,11.296,9.084,20.554,20.671,20.554
			c11.529,0,19.798-6.638,19.798-22.01H31.004z"/>
	</g>
</g>
<g id="Layer_1">
</g>
</svg>
